<?xml version="1.0" encoding="UTF-8"?>
<svg xmlns="http://www.w3.org/2000/svg" xmlns:xlink="http://www.w3.org/1999/xlink" width="80px" height="150px" viewBox="0 0 67 125" version="1.1">
<defs>
<linearGradient id="linear0" gradientUnits="userSpaceOnUse" x1="10.496" y1="93.338" x2="10.22" y2="84.287" gradientTransform="matrix(0.0683414,-1.304832,-0.256438,-0.0132646,63.141039,113.557035)">
<stop offset="0" style="stop-color:rgb(100%,100%,100%);stop-opacity:1;"/>
<stop offset="1" style="stop-color:rgb(79.607843%,79.607843%,79.607843%);stop-opacity:1;"/>
</linearGradient>
<linearGradient id="linear1" gradientUnits="userSpaceOnUse" x1="6.5872" y1="22.133" x2="14.511" y2="22.133" gradientTransform="matrix(0.0289262,-0.552279,-0.596517,-0.0308552,62.96907,113.547956)">
<stop offset="0" style="stop-color:rgb(73.333333%,26.666667%,26.666667%);stop-opacity:1;"/>
<stop offset="1" style="stop-color:rgb(93.333333%,5.098039%,5.098039%);stop-opacity:1;"/>
</linearGradient>
<linearGradient id="linear2" gradientUnits="userSpaceOnUse" x1="73.362" y1="26.652" x2="-2.7583" y2="21.27" gradientTransform="matrix(0.05763,-1.1072,-1.0336,-0.053801,-139.33,-65.677)">
<stop offset="0" style="stop-color:rgb(100%,100%,100%);stop-opacity:1;"/>
<stop offset="1" style="stop-color:rgb(100%,100%,100%);stop-opacity:0;"/>
</linearGradient>
<filter id="alpha" filterUnits="objectBoundingBox" x="0%" y="0%" width="100%" height="100%">
  <feColorMatrix type="matrix" in="SourceGraphic" values="0 0 0 0 1 0 0 0 0 1 0 0 0 0 1 0 0 0 1 0"/>
</filter>
<mask id="mask0">
  <g filter="url(#alpha)">
<rect x="0" y="0" width="67" height="125" style="fill:rgb(0%,0%,0%);fill-opacity:0.403922;stroke:none;"/>
  </g>
</mask>
<linearGradient id="linear3" gradientUnits="userSpaceOnUse" x1="302.86" y1="366.65" x2="302.86" y2="609.51" gradientTransform="matrix(0.0148422,-0.0300389,0.0212691,0.010379,16.385817,106.113284)">
<stop offset="0" style="stop-color:rgb(0%,0%,0%);stop-opacity:0;"/>
<stop offset="0.5" style="stop-color:rgb(0%,0%,0%);stop-opacity:1;"/>
<stop offset="1" style="stop-color:rgb(0%,0%,0%);stop-opacity:0;"/>
</linearGradient>
<clipPath id="clip1">
  <rect x="0" y="0" width="67" height="125"/>
</clipPath>
<g id="surface5" clip-path="url(#clip1)">
<path style=" stroke:none;fill-rule:nonzero;fill:url(#linear3);" d="M 25.964844 106.3125 L 33.132812 91.808594 L 38.296875 94.332031 L 31.128906 108.835938 Z M 25.964844 106.3125 "/>
</g>
<mask id="mask1">
  <g filter="url(#alpha)">
<rect x="0" y="0" width="67" height="125" style="fill:rgb(0%,0%,0%);fill-opacity:0.403922;stroke:none;"/>
  </g>
</mask>
<radialGradient id="radial0" gradientUnits="userSpaceOnUse" cx="605.71" cy="486.65" fx="605.71" fy="486.65" r="117.14" gradientTransform="matrix(0.0148422,-0.0300389,0.0212691,0.010379,16.389026,106.106787)">
<stop offset="0" style="stop-color:rgb(0%,0%,0%);stop-opacity:1;"/>
<stop offset="1" style="stop-color:rgb(0%,0%,0%);stop-opacity:0;"/>
</radialGradient>
<clipPath id="clip2">
  <rect x="0" y="0" width="67" height="125"/>
</clipPath>
<g id="surface8" clip-path="url(#clip2)">
<path style=" stroke:none;fill-rule:nonzero;fill:url(#radial0);" d="M 33.132812 91.808594 L 38.296875 94.328125 C 39.070312 92.789062 38.988281 90.027344 37.5625 89.328125 C 36.136719 88.632812 34.128906 89.796875 33.132812 91.808594 Z M 33.132812 91.808594 "/>
</g>
<mask id="mask2">
  <g filter="url(#alpha)">
<rect x="0" y="0" width="67" height="125" style="fill:rgb(0%,0%,0%);fill-opacity:0.403922;stroke:none;"/>
  </g>
</mask>
<radialGradient id="radial1" gradientUnits="userSpaceOnUse" cx="605.71" cy="486.65" fx="605.71" fy="486.65" r="117.14" gradientTransform="matrix(-0.0148422,0.0300389,0.0212691,0.010379,27.111771,84.405213)">
<stop offset="0" style="stop-color:rgb(0%,0%,0%);stop-opacity:1;"/>
<stop offset="1" style="stop-color:rgb(0%,0%,0%);stop-opacity:0;"/>
</radialGradient>
<clipPath id="clip3">
  <rect x="0" y="0" width="67" height="125"/>
</clipPath>
<g id="surface11" clip-path="url(#clip3)">
<path style=" stroke:none;fill-rule:nonzero;fill:url(#radial1);" d="M 25.964844 106.316406 L 31.128906 108.835938 C 30.375 110.386719 28.125 112.011719 26.699219 111.3125 C 25.273438 110.617188 24.96875 108.328125 25.964844 106.316406 Z M 25.964844 106.316406 "/>
</g>
<mask id="mask3">
  <g filter="url(#alpha)">
<rect x="0" y="0" width="67" height="125" style="fill:rgb(0%,0%,0%);fill-opacity:0.482353;stroke:none;"/>
  </g>
</mask>
<linearGradient id="linear4" gradientUnits="userSpaceOnUse" x1="35.433" y1="4.953" x2="41.219" y2="4.953" gradientTransform="matrix(0.06454,-0.130623,1.9101,1.018051,4.697205,101.087649)">
<stop offset="0" style="stop-color:rgb(0%,0%,0%);stop-opacity:0.0666667;"/>
<stop offset="1" style="stop-color:rgb(100%,100%,100%);stop-opacity:1;"/>
</linearGradient>
<clipPath id="clip4">
  <rect x="0" y="0" width="67" height="125"/>
</clipPath>
<g id="surface14" clip-path="url(#clip4)">
<path style=" stroke:none;fill-rule:nonzero;fill:url(#linear4);" d="M 8.925781 97.496094 L 9.433594 96.464844 L 24.472656 104.480469 L 23.964844 105.511719 Z M 8.925781 97.496094 "/>
</g>
<linearGradient id="linear5" gradientUnits="userSpaceOnUse" x1="10.496" y1="93.338" x2="10.22" y2="84.287" gradientTransform="matrix(0.57494,-1.163604,0.228689,0.111597,3.915485,101.31383)">
<stop offset="0" style="stop-color:rgb(100%,100%,100%);stop-opacity:1;"/>
<stop offset="1" style="stop-color:rgb(79.607843%,79.607843%,79.607843%);stop-opacity:1;"/>
</linearGradient>
<linearGradient id="linear6" gradientUnits="userSpaceOnUse" x1="6.5872" y1="22.133" x2="14.511" y2="22.133" gradientTransform="matrix(0.243354,-0.492527,0.531945,0.259578,4.075635,101.390339)">
<stop offset="0" style="stop-color:rgb(16.862745%,26.27451%,36.078431%);stop-opacity:1;"/>
<stop offset="1" style="stop-color:rgb(12.156863%,19.607843%,27.058824%);stop-opacity:1;"/>
</linearGradient>
<linearGradient id="linear7" gradientUnits="userSpaceOnUse" x1="73.362" y1="26.652" x2="-2.7583" y2="21.27" gradientTransform="matrix(0.45553,-0.92772,0.86608,0.42527,-276.35,-7.4428)">
<stop offset="0" style="stop-color:rgb(15.686275%,15.686275%,15.686275%);stop-opacity:1;"/>
<stop offset="1" style="stop-color:rgb(66.27451%,66.27451%,66.27451%);stop-opacity:0;"/>
</linearGradient>
<mask id="mask4">
  <g filter="url(#alpha)">
<rect x="0" y="0" width="67" height="125" style="fill:rgb(0%,0%,0%);fill-opacity:0.576471;stroke:none;"/>
  </g>
</mask>
<radialGradient id="radial2" gradientUnits="userSpaceOnUse" cx="18.241" cy="21.818" fx="18.241" fy="21.818" r="8.3085" >
<stop offset="0" style="stop-color:rgb(44.705882%,62.352941%,81.176471%);stop-opacity:0.207843;"/>
<stop offset="1" style="stop-color:rgb(44.705882%,62.352941%,81.176471%);stop-opacity:0.67451;"/>
</radialGradient>
<clipPath id="clip5">
  <rect x="0" y="0" width="67" height="125"/>
</clipPath>
<g id="surface17" clip-path="url(#clip5)">
<path style="fill-rule:evenodd;fill:url(#radial2);stroke-width:0.96884;stroke-linecap:round;stroke-linejoin:miter;stroke:rgb(18.823529%,38.823529%,63.921569%);stroke-opacity:0.494118;stroke-miterlimit:10;" d="M 25.897636 18.477801 C 25.897636 23.064909 22.178412 26.78734 17.591527 26.78734 C 12.999951 26.78734 9.280728 23.064909 9.280728 18.477801 C 9.280728 13.890694 12.999951 10.168262 17.591527 10.168262 C 22.178412 10.168262 25.897636 13.890694 25.897636 18.477801 Z M 25.897636 18.477801 " transform="matrix(0.832877,0,0,0.903517,27.860137,8.586237)"/>
</g>
<mask id="mask5">
  <g filter="url(#alpha)">
<rect x="0" y="0" width="67" height="125" style="fill:rgb(0%,0%,0%);fill-opacity:0.2;stroke:none;"/>
  </g>
</mask>
<radialGradient id="radial3" gradientUnits="userSpaceOnUse" cx="15.414" cy="13.078" fx="15.414" fy="13.078" r="6.6562" gradientTransform="matrix(1.544124,0,0,1.454908,16.643754,1.70931)">
<stop offset="0" style="stop-color:rgb(100%,100%,100%);stop-opacity:1;"/>
<stop offset="1" style="stop-color:rgb(100%,100%,100%);stop-opacity:0.247059;"/>
</radialGradient>
<clipPath id="clip6">
  <rect x="0" y="0" width="67" height="125"/>
</clipPath>
<g id="surface20" clip-path="url(#clip6)">
<path style=" stroke:none;fill-rule:evenodd;fill:url(#radial3);" d="M 42.378906 18.726562 C 39.277344 18.726562 36.765625 21.449219 36.765625 24.816406 C 36.765625 25.785156 37.019531 26.679688 37.390625 27.496094 C 38.136719 27.792969 38.929688 27.996094 39.769531 27.996094 C 43.445312 27.996094 46.378906 24.855469 46.605469 20.929688 C 45.574219 19.609375 44.097656 18.726562 42.378906 18.726562 Z M 42.378906 18.726562 "/>
</g>
<mask id="mask6">
  <g filter="url(#alpha)">
<rect x="0" y="0" width="67" height="125" style="fill:rgb(0%,0%,0%);fill-opacity:0.576471;stroke:none;"/>
  </g>
</mask>
<radialGradient id="radial4" gradientUnits="userSpaceOnUse" cx="18.241" cy="21.818" fx="18.241" fy="21.818" r="8.3085" >
<stop offset="0" style="stop-color:rgb(44.705882%,62.352941%,81.176471%);stop-opacity:0.207843;"/>
<stop offset="1" style="stop-color:rgb(44.705882%,62.352941%,81.176471%);stop-opacity:0.67451;"/>
</radialGradient>
<clipPath id="clip7">
  <rect x="0" y="0" width="67" height="125"/>
</clipPath>
<g id="surface23" clip-path="url(#clip7)">
<path style="fill-rule:evenodd;fill:url(#radial4);stroke-width:1.2384;stroke-linecap:round;stroke-linejoin:miter;stroke:rgb(18.823529%,38.823529%,63.921569%);stroke-opacity:0.494118;stroke-miterlimit:10;" d="M 25.898329 18.476528 C 25.898329 23.067959 22.179106 26.786067 17.58753 26.786067 C 13.000644 26.786067 9.281421 23.067959 9.281421 18.476528 C 9.281421 13.88942 13.000644 10.171312 17.58753 10.171312 C 22.179106 10.171312 25.898329 13.88942 25.898329 18.476528 Z M 25.898329 18.476528 " transform="matrix(0.832877,0,0,0.903517,9.738466,8.587387)"/>
</g>
<mask id="mask7">
  <g filter="url(#alpha)">
<rect x="0" y="0" width="67" height="125" style="fill:rgb(0%,0%,0%);fill-opacity:0.2;stroke:none;"/>
  </g>
</mask>
<radialGradient id="radial5" gradientUnits="userSpaceOnUse" cx="15.414" cy="13.078" fx="15.414" fy="13.078" r="6.6562" gradientTransform="matrix(1.544124,0,0,1.454908,-1.479404,1.710461)">
<stop offset="0" style="stop-color:rgb(100%,100%,100%);stop-opacity:1;"/>
<stop offset="1" style="stop-color:rgb(100%,100%,100%);stop-opacity:0.247059;"/>
</radialGradient>
<clipPath id="clip8">
  <rect x="0" y="0" width="67" height="125"/>
</clipPath>
<g id="surface26" clip-path="url(#clip8)">
<path style=" stroke:none;fill-rule:evenodd;fill:url(#radial5);" d="M 24.257812 18.722656 C 21.15625 18.722656 18.644531 21.445312 18.644531 24.8125 C 18.644531 25.78125 18.894531 26.675781 19.269531 27.492188 C 20.015625 27.789062 20.808594 27.992188 21.648438 27.992188 C 25.324219 27.992188 28.257812 24.851562 28.484375 20.925781 C 27.453125 19.605469 25.976562 18.722656 24.257812 18.722656 Z M 24.257812 18.722656 "/>
</g>
</defs>
<g id="surface1">
<path style="fill-rule:nonzero;fill:rgb(100%,80%,0%);fill-opacity:1;stroke-width:4;stroke-linecap:round;stroke-linejoin:round;stroke:rgb(0%,0%,0%);stroke-opacity:1;stroke-miterlimit:4;" d="M 244.083101 383.157504 C 244.098788 443.660212 195.04642 492.71902 134.542747 492.71902 C 74.039074 492.71902 24.986706 443.660212 25.002392 383.157504 C 24.986706 322.639013 74.023387 273.580204 134.542747 273.580204 C 195.04642 273.580204 244.083101 322.639013 244.083101 383.157504 Z M 244.083101 383.157504 " transform="matrix(0.249016,0,0,0.247471,0.0122758,0)"/>
<path style=" stroke:none;fill-rule:nonzero;fill:rgb(47.058824%,26.666667%,12.941176%);fill-opacity:1;" d="M 17.855469 107.019531 C 18.898438 108.820312 18.890625 110.769531 17.835938 111.375 C 16.785156 111.976562 15.085938 111.003906 14.039062 109.207031 C 12.996094 107.40625 13.003906 105.457031 14.058594 104.851562 C 15.109375 104.25 16.8125 105.222656 17.855469 107.019531 Z M 17.855469 107.019531 "/>
<path style=" stroke:none;fill-rule:nonzero;fill:rgb(0%,0%,0%);fill-opacity:0.313725;" d="M 59.144531 85.515625 C 59.164062 85.933594 59.175781 86.355469 59.175781 86.777344 C 59.175781 101.738281 46.957031 113.882812 31.898438 113.882812 C 20.132812 113.882812 10.089844 106.457031 6.265625 96.070312 C 6.925781 110.453125 18.886719 121.925781 33.519531 121.925781 C 48.574219 121.925781 60.792969 109.78125 60.792969 94.820312 C 60.792969 91.550781 60.210938 88.417969 59.144531 85.515625 Z M 59.144531 85.515625 "/>
<path style="fill-rule:nonzero;fill:rgb(47.058824%,26.666667%,12.941176%);fill-opacity:1;stroke-width:4;stroke-linecap:round;stroke-linejoin:round;stroke:rgb(0%,0%,0%);stroke-opacity:1;stroke-miterlimit:4;" d="M 142.731214 493.713456 C 142.731214 502.805436 157.398296 503.08956 175.469395 503.08956 C 193.540495 503.08956 208.207576 503.784086 208.207576 493.713456 C 208.207576 475.987252 193.540495 461.623186 175.469395 461.623186 C 157.398296 461.623186 142.731214 475.987252 142.731214 493.713456 Z M 142.731214 493.713456 " transform="matrix(0.249016,0,0,0.247471,0.0122758,0)"/>
<path style="fill-rule:evenodd;fill:rgb(0%,0%,0%);fill-opacity:0.313725;stroke-width:4;stroke-linecap:butt;stroke-linejoin:round;stroke:rgb(0%,0%,0%);stroke-opacity:1;stroke-miterlimit:4;" d="M 188.050143 502.505527 C 188.050143 486.136806 178.606739 476.066175 178.606739 476.066175 C 178.606739 476.066175 182.387238 489.909346 181.759769 502.505527 Z M 188.050143 502.505527 " transform="matrix(0.249016,0,0,0.247471,0.0122758,0)"/>
<path style="fill-rule:evenodd;fill:rgb(100%,80%,0%);fill-opacity:1;stroke-width:4;stroke-linecap:round;stroke-linejoin:round;stroke:rgb(0%,0%,0%);stroke-opacity:1;stroke-miterlimit:4;" d="M 82.007927 309.774492 C 106.510581 271.875458 102.008493 181.050366 102.008493 181.050366 L 162.010191 177.782935 C 162.010191 177.782935 160.504266 269.270984 185.508895 307.817191 " transform="matrix(0.249016,0,0,0.247471,0.0122758,0)"/>
<path style=" stroke:none;fill-rule:nonzero;fill:rgb(47.058824%,26.666667%,12.941176%);fill-opacity:1;" d="M 39.253906 53.667969 C 39.253906 55.699219 38.078125 57.34375 36.632812 57.34375 C 35.183594 57.34375 34.011719 55.699219 34.011719 53.667969 C 34.011719 51.640625 35.183594 49.996094 36.632812 49.996094 C 38.078125 49.996094 39.253906 51.640625 39.253906 53.667969 Z M 39.253906 53.667969 "/>
<path style=" stroke:none;fill-rule:evenodd;fill:rgb(0%,0%,0%);fill-opacity:0.313725;" d="M 40.351562 43.996094 L 36.082031 44.226562 L 25.414062 44.804688 C 25.414062 44.804688 25.472656 46.007812 25.492188 47.914062 C 28.765625 49.957031 32.070312 51.148438 34.386719 51.148438 C 35.214844 51.148438 36.15625 51.007812 37.164062 50.738281 C 38.703125 58.988281 41.5625 70.621094 46.136719 76.105469 L 45.886719 76.1875 L 46.207031 76.179688 C 41.921875 69.613281 40.769531 56.839844 40.464844 49.515625 C 40.429688 48.6875 40.402344 47.921875 40.386719 47.25 C 40.371094 46.710938 40.367188 46.234375 40.363281 45.820312 C 40.359375 45.484375 40.355469 45.230469 40.355469 44.984375 C 40.351562 44.601562 40.351562 44.550781 40.355469 44.386719 C 40.355469 44.128906 40.355469 43.996094 40.355469 43.996094 Z M 40.351562 43.996094 "/>
<path style="fill-rule:nonzero;fill:rgb(100%,80%,0%);fill-opacity:1;stroke-width:4;stroke-linecap:round;stroke-linejoin:round;stroke:rgb(0%,0%,0%);stroke-opacity:1;stroke-miterlimit:4;" d="M 134.542747 31.001126 C 111.749945 31.001126 93.255304 37.977958 79.670606 49.595488 C 79.090197 49.169302 78.321548 48.790469 77.317598 48.348498 C 21.817988 37.741188 2.711565 73.446151 2.005663 79.097069 C 1.299761 84.747987 40.516557 93.587412 61.379892 72.720055 C 61.662253 72.451716 61.834807 72.262299 62.101481 72.009744 C 55.936601 84.021892 52.68945 97.975555 52.68945 112.844731 C 52.68945 158.020507 108.816529 194.688336 134.542747 194.688336 C 161.257228 194.688336 216.380357 158.020507 216.380357 112.844731 C 216.380357 97.801924 212.929279 83.721983 206.450664 71.599343 C 206.858519 72.009744 207.14088 72.293869 207.564421 72.720055 C 228.427757 93.587412 267.660239 84.763772 266.954337 79.097069 C 266.232748 73.446151 247.173385 37.741188 191.673775 48.348498 C 190.497271 48.869393 189.587442 49.295579 189.007033 49.816474 C 175.281155 38.072666 156.8022 31.001126 134.542747 31.001126 Z M 134.542747 31.001126 " transform="matrix(0.249016,0,0,0.247471,0.0122758,0)"/>
<path style="fill-rule:nonzero;fill:rgb(100%,100%,100%);fill-opacity:1;stroke-width:4;stroke-linecap:round;stroke-linejoin:round;stroke:rgb(0%,0%,0%);stroke-opacity:1;stroke-miterlimit:4;" d="M 130.919115 100.848368 C 130.919115 113.365626 120.769808 123.51518 108.251807 123.51518 C 95.733806 123.51518 85.584499 113.365626 85.600185 100.848368 C 85.584499 88.331111 95.733806 78.181557 108.251807 78.181557 C 120.769808 78.181557 130.919115 88.331111 130.919115 100.848368 Z M 130.919115 100.848368 " transform="matrix(0.249016,0,0,0.247471,0.0122758,0)"/>
<path style="fill-rule:nonzero;fill:rgb(100%,100%,100%);fill-opacity:1;stroke-width:4;stroke-linecap:round;stroke-linejoin:round;stroke:rgb(0%,0%,0%);stroke-opacity:1;stroke-miterlimit:4;" d="M 183.642175 100.848368 C 183.657862 113.365626 173.508555 123.51518 160.990554 123.51518 C 148.472553 123.51518 138.323246 113.365626 138.323246 100.848368 C 138.323246 88.331111 148.472553 78.181557 160.990554 78.181557 C 173.508555 78.181557 183.657862 88.331111 183.642175 100.848368 Z M 183.642175 100.848368 " transform="matrix(0.249016,0,0,0.247471,0.0122758,0)"/>
<path style=" stroke:none;fill-rule:nonzero;fill:rgb(0%,0%,0%);fill-opacity:1;" d="M 40.726562 25.949219 C 40.726562 26.980469 39.882812 27.816406 38.84375 27.816406 C 37.804688 27.816406 36.964844 26.980469 36.964844 25.949219 C 36.964844 24.914062 37.804688 24.078125 38.84375 24.078125 C 39.882812 24.078125 40.726562 24.914062 40.726562 25.949219 Z M 40.726562 25.949219 "/>
<path style=" stroke:none;fill-rule:nonzero;fill:rgb(0%,0%,0%);fill-opacity:1;" d="M 30.261719 25.949219 C 30.261719 26.980469 29.417969 27.816406 28.378906 27.816406 C 27.339844 27.816406 26.496094 26.980469 26.5 25.949219 C 26.496094 24.914062 27.339844 24.078125 28.378906 24.078125 C 29.417969 24.078125 30.261719 24.914062 30.261719 25.949219 Z M 30.261719 25.949219 "/>
<path style=" stroke:none;fill-rule:nonzero;fill:rgb(0%,0%,0%);fill-opacity:0.313725;" d="M 52.046875 18.296875 C 52.484375 20.183594 52.699219 22.1875 52.699219 24.265625 C 52.699219 35.445312 38.972656 44.519531 32.320312 44.519531 C 27.164062 44.519531 17.105469 38.640625 13.378906 30.515625 C 15.277344 40.472656 27.617188 48.175781 33.519531 48.175781 C 40.171875 48.175781 53.898438 39.101562 53.898438 27.921875 C 53.898438 24.4375 53.296875 21.160156 52.046875 18.296875 Z M 52.046875 18.296875 "/>
<path style="fill-rule:nonzero;fill:rgb(47.058824%,26.666667%,12.941176%);fill-opacity:1;stroke-width:4;stroke-linecap:round;stroke-linejoin:round;stroke:rgb(0%,0%,0%);stroke-opacity:1;stroke-miterlimit:4;" d="M 127.734711 493.713456 C 127.734711 502.805436 113.067629 503.08956 94.99653 503.08956 C 76.92543 503.08956 62.258348 503.784086 62.258348 493.713456 C 62.258348 475.987252 76.92543 461.623186 94.99653 461.623186 C 113.067629 461.623186 127.734711 475.987252 127.734711 493.713456 Z M 127.734711 493.713456 " transform="matrix(0.249016,0,0,0.247471,0.0122758,0)"/>
<path style="fill-rule:evenodd;fill:rgb(0%,0%,0%);fill-opacity:0.313725;stroke-width:4;stroke-linecap:butt;stroke-linejoin:round;stroke:rgb(0%,0%,0%);stroke-opacity:1;stroke-miterlimit:4;" d="M 82.400095 502.505527 C 82.400095 486.136806 91.843499 476.066175 91.843499 476.066175 C 91.843499 476.066175 88.063 489.909346 88.690469 502.505527 Z M 82.400095 502.505527 " transform="matrix(0.249016,0,0,0.247471,0.0122758,0)"/>
<path style=" stroke:none;fill-rule:nonzero;fill:rgb(0%,0%,0%);fill-opacity:1;" d="M 37.648438 40.953125 C 37.078125 41.933594 36.03125 42.394531 35.308594 41.984375 C 34.585938 41.570312 34.464844 40.4375 35.039062 39.453125 C 35.609375 38.46875 36.65625 38.007812 37.378906 38.421875 C 38.097656 38.835938 38.21875 39.96875 37.648438 40.953125 Z M 37.648438 40.953125 "/>
<path style=" stroke:none;fill-rule:nonzero;fill:rgb(0%,0%,0%);fill-opacity:1;" d="M 29.496094 40.953125 C 30.066406 41.933594 31.113281 42.394531 31.835938 41.984375 C 32.558594 41.570312 32.679688 40.4375 32.105469 39.453125 C 31.535156 38.46875 30.488281 38.007812 29.765625 38.421875 C 29.046875 38.835938 28.925781 39.96875 29.496094 40.953125 Z M 29.496094 40.953125 "/>
<path style="fill-rule:evenodd;fill:rgb(83.137255%,66.666667%,0%);fill-opacity:1;stroke-width:4;stroke-linecap:butt;stroke-linejoin:round;stroke:rgb(0%,0%,0%);stroke-opacity:1;stroke-miterlimit:4;" d="M 201.854456 54.946497 C 237.63586 50.368938 254.389275 71.899252 255.691273 75.166682 C 257.008957 78.434112 220.568711 85.284667 201.854456 54.946497 Z M 201.854456 54.946497 " transform="matrix(0.249016,0,0,0.247471,0.0122758,0)"/>
<path style=" stroke:none;fill-rule:nonzero;fill:rgb(47.058824%,26.666667%,12.941176%);fill-opacity:1;" d="M 16.996094 88.167969 C 16.296875 90.980469 14.285156 92.898438 12.492188 92.464844 C 10.699219 92.027344 9.808594 89.398438 10.496094 86.585938 C 10.945312 84.761719 11.980469 83.222656 13.210938 82.554688 C 14.445312 81.886719 15.683594 82.191406 16.464844 83.347656 C 17.246094 84.507812 17.449219 86.34375 16.996094 88.167969 Z M 16.996094 88.167969 "/>
<path style=" stroke:none;fill-rule:nonzero;fill:rgb(47.058824%,26.666667%,12.941176%);fill-opacity:1;" d="M 35.226562 96.5625 C 35.226562 100.089844 32.507812 102.949219 29.152344 102.949219 C 25.796875 102.949219 23.078125 100.089844 23.078125 96.5625 C 23.078125 93.035156 25.796875 90.175781 29.152344 90.175781 C 32.507812 90.175781 35.226562 93.035156 35.226562 96.5625 Z M 35.226562 96.5625 "/>
<path style=" stroke:none;fill-rule:nonzero;fill:rgb(47.058824%,26.666667%,12.941176%);fill-opacity:1;" d="M 54.488281 84.613281 C 55.136719 86.539062 54.761719 88.394531 53.65625 88.761719 C 52.546875 89.128906 51.125 87.867188 50.480469 85.941406 C 49.835938 84.015625 50.207031 82.15625 51.316406 81.789062 C 52.421875 81.425781 53.84375 82.6875 54.488281 84.613281 Z M 54.488281 84.613281 "/>
<path style=" stroke:none;fill-rule:nonzero;fill:rgb(47.058824%,26.666667%,12.941176%);fill-opacity:1;" d="M 50.957031 102.171875 C 50.957031 104.203125 49.617188 105.847656 47.960938 105.847656 C 46.308594 105.847656 44.96875 104.203125 44.96875 102.171875 C 44.96875 100.144531 46.308594 98.5 47.960938 98.5 C 49.617188 98.5 50.957031 100.144531 50.957031 102.171875 Z M 50.957031 102.171875 "/>
<path style=" stroke:none;fill-rule:nonzero;fill:rgb(47.058824%,26.666667%,12.941176%);fill-opacity:1;" d="M 44.5625 82.652344 C 44.5625 85.550781 42.433594 87.902344 39.808594 87.902344 C 37.179688 87.902344 35.054688 85.550781 35.054688 82.652344 C 35.054688 79.753906 37.179688 77.402344 39.808594 77.402344 C 42.433594 77.402344 44.5625 79.753906 44.5625 82.652344 Z M 44.5625 82.652344 "/>
<path style=" stroke:none;fill-rule:nonzero;fill:rgb(47.058824%,26.666667%,12.941176%);fill-opacity:1;" d="M 32.410156 65.074219 C 32.410156 67.972656 30.953125 70.324219 29.152344 70.324219 C 27.355469 70.324219 25.898438 67.972656 25.898438 65.074219 C 25.898438 62.175781 27.355469 59.824219 29.152344 59.824219 C 30.953125 59.824219 32.410156 62.175781 32.410156 65.074219 Z M 32.410156 65.074219 "/>
<path style="fill-rule:evenodd;fill:rgb(83.137255%,66.666667%,0%);fill-opacity:1;stroke-width:4;stroke-linecap:butt;stroke-linejoin:round;stroke:rgb(0%,0%,0%);stroke-opacity:1;stroke-miterlimit:4;" d="M 66.729063 54.946497 C 30.947659 50.368938 14.20993 71.899252 12.892246 75.166682 C 11.574561 78.434112 48.014808 85.284667 66.729063 54.946497 Z M 66.729063 54.946497 " transform="matrix(0.249016,0,0,0.247471,0.0122758,0)"/>
<path style="fill-rule:nonzero;fill:rgb(38.431373%,23.529412%,23.529412%);fill-opacity:1;stroke-width:1.0812;stroke-linecap:round;stroke-linejoin:round;stroke:rgb(0%,0%,0%);stroke-opacity:1;stroke-miterlimit:4;" d="M -145.800807 -72.901289 C -143.729209 -72.893975 -142.544401 -73.822873 -142.442638 -75.666041 L -140.698135 -107.329038 C -140.683597 -107.592347 -140.879854 -107.950741 -141.148798 -107.994626 L -176.547676 -113.363219 L -176.685783 -111.944272 L -183.612914 -112.990197 C -184.28164 -113.092595 -184.87041 -112.858542 -184.92856 -111.900387 L -186.81117 -78.745302 C -186.963814 -76.009807 -184.855873 -73.084143 -182.064668 -73.069515 Z M -145.800807 -72.901289 " transform="matrix(0.537402,0,0,0.534067,137.947435,149.207598)"/>
<path style=" stroke:none;fill-rule:nonzero;fill:url(#linear0);" d="M 43.578125 89.921875 L 42.625 106.75 C 42.476562 107.640625 41.730469 108.328125 40.800781 108.28125 C 39.871094 108.230469 39.199219 107.472656 39.144531 106.566406 L 39.953125 89.734375 L 39.988281 89.734375 C 39.984375 90.691406 40.703125 91.507812 41.675781 91.558594 C 42.648438 91.609375 43.449219 90.871094 43.542969 89.917969 Z M 43.578125 89.921875 "/>
<path style=" stroke:none;fill-rule:nonzero;fill:url(#linear1);" d="M 61.265625 108.4375 C 61.214844 109.421875 60.601562 109.925781 59.523438 109.917969 L 40.816406 109.910156 C 39.027344 109.871094 38.070312 108.710938 37.839844 107.550781 C 38.65625 110.050781 42.945312 109.945312 43.089844 106.882812 L 44.019531 89.066406 L 61.882812 91.902344 C 62.019531 91.925781 62.121094 92.117188 62.113281 92.257812 Z M 61.265625 108.4375 "/>
<path style="fill:none;stroke-width:1.0812;stroke-linecap:round;stroke-linejoin:miter;stroke:url(#linear2);stroke-miterlimit:20;" d="M -143.242202 -76.572997 C -143.336696 -74.751771 -144.165335 -74.093497 -146.13517 -74.108125 L -178.481167 -74.386063 C -176.693051 -75.300333 -175.987981 -76.89482 -175.849875 -79.498661 L -174.163522 -111.841874 L -142.108275 -107.109613 C -141.853868 -107.073042 -141.672149 -106.714648 -141.686687 -106.451338 Z M -143.242202 -76.572997 " transform="matrix(0.537402,0,0,0.534067,137.947435,149.207598)"/>
<path style="fill-rule:nonzero;fill:rgb(47.058824%,26.666667%,12.941176%);fill-opacity:1;stroke-width:4;stroke-linecap:round;stroke-linejoin:round;stroke:rgb(0%,0%,0%);stroke-opacity:1;stroke-miterlimit:4;" d="M -636.76476 216.612667 C -636.76476 225.704647 -622.097678 226.004556 -604.042265 226.004556 C -585.971165 226.004556 -571.304084 226.699083 -571.304084 216.612667 C -571.304084 198.902248 -585.971165 184.522398 -604.042265 184.522398 C -622.097678 184.522398 -636.76476 198.902248 -636.76476 216.612667 Z M -636.76476 216.612667 " transform="matrix(0.249016,0,0,0.247471,203.670331,40.867336)"/>
<path style="fill-rule:evenodd;fill:rgb(0%,0%,0%);fill-opacity:0.313725;stroke-width:4;stroke-linecap:butt;stroke-linejoin:round;stroke:rgb(0%,0%,0%);stroke-opacity:1;stroke-miterlimit:4;" d="M -591.44583 225.404738 C -591.44583 209.036017 -600.889235 198.965387 -600.889235 198.965387 C -600.889235 198.965387 -597.108735 212.808558 -597.736204 225.404738 Z M -591.44583 225.404738 " transform="matrix(0.249016,0,0,0.247471,203.670331,40.867336)"/>
<use xlink:href="#surface5" mask="url(#mask0)"/>
<use xlink:href="#surface8" mask="url(#mask1)"/>
<use xlink:href="#surface11" mask="url(#mask2)"/>
<use xlink:href="#surface14" mask="url(#mask3)"/>
<path style="fill-rule:nonzero;fill:rgb(14.117647%,16.470588%,22.745098%);fill-opacity:1;stroke-width:1.0079;stroke-linecap:round;stroke-linejoin:round;stroke:rgb(0%,0%,0%);stroke-opacity:1;stroke-miterlimit:4;" d="M -267.797555 -10.393686 C -269.491275 -11.321429 -270.030807 -12.62027 -269.27956 -14.166508 L -256.330795 -40.74119 C -256.221523 -40.961099 -255.900535 -41.160392 -255.661502 -41.077926 L -224.395972 -29.381492 L -224.928674 -28.165118 L -218.823086 -25.869814 C -218.228918 -25.649904 -217.853294 -25.196341 -218.242577 -24.385425 L -231.751362 3.460608 C -232.871403 5.755913 -235.917368 7.185325 -238.191597 5.927718 Z M -267.797555 -10.393686 " transform="matrix(0.571966,0,0,0.568416,161.760872,106.075904)"/>
<path style=" stroke:none;fill-rule:nonzero;fill:url(#linear5);" d="M 32.359375 90.222656 L 25.007812 105.261719 C 24.703125 106.109375 25.015625 107.0625 25.84375 107.464844 C 26.675781 107.871094 27.625 107.53125 28.113281 106.777344 L 35.59375 91.800781 L 35.5625 91.785156 C 35.101562 92.613281 34.082031 92.976562 33.214844 92.554688 C 32.347656 92.128906 32.011719 91.109375 32.390625 90.238281 Z M 32.359375 90.222656 "/>
<path style=" stroke:none;fill-rule:nonzero;fill:url(#linear6);" d="M 8.035156 97.777344 C 7.601562 98.65625 7.886719 99.386719 8.824219 99.898438 L 25.039062 108.867188 C 26.609375 109.695312 28.003906 109.148438 28.765625 108.253906 C 26.84375 110.027344 23.175781 107.878906 24.542969 105.15625 L 32.394531 89.265625 L 15.535156 83.15625 C 15.40625 83.105469 15.222656 83.222656 15.160156 83.351562 Z M 8.035156 97.777344 "/>
<path style="fill:none;stroke-width:1.0079;stroke-linecap:round;stroke-linejoin:miter;stroke:url(#linear7);stroke-miterlimit:20;" d="M -268.220985 -14.537605 C -268.965402 -13.011983 -268.596608 -12.097985 -266.984842 -11.218347 L -240.520462 3.233827 C -241.558549 1.680716 -241.4083 0.0588843 -240.336065 -2.126466 L -227.032166 -29.223433 L -255.279049 -39.916529 C -255.504423 -40.005867 -255.818581 -39.79283 -255.927853 -39.579793 Z M -268.220985 -14.537605 " transform="matrix(0.571966,0,0,0.568416,161.760872,106.075904)"/>
<path style="fill-rule:nonzero;fill:rgb(47.058824%,26.666667%,12.941176%);fill-opacity:1;stroke-width:4;stroke-linecap:round;stroke-linejoin:round;stroke:rgb(0%,0%,0%);stroke-opacity:1;stroke-miterlimit:4;" d="M -787.250326 155.681734 C -787.250326 164.773714 -801.917407 165.057839 -819.988507 165.057839 C -838.059606 165.057839 -852.726688 165.752365 -852.726688 155.681734 C -852.726688 137.971315 -838.059606 123.591465 -819.988507 123.591465 C -801.917407 123.591465 -787.250326 137.971315 -787.250326 155.681734 Z M -787.250326 155.681734 " transform="matrix(0.249016,0,0,0.247471,218.046047,55.418622)"/>
<path style="fill-rule:evenodd;fill:rgb(0%,0%,0%);fill-opacity:0.313725;stroke-width:4;stroke-linecap:butt;stroke-linejoin:round;stroke:rgb(0%,0%,0%);stroke-opacity:1;stroke-miterlimit:4;" d="M -832.584942 164.458021 C -832.584942 148.0893 -823.141537 138.018669 -823.141537 138.018669 C -823.141537 138.018669 -826.922036 151.86184 -826.278881 164.458021 Z M -832.584942 164.458021 " transform="matrix(0.249016,0,0,0.247471,218.046047,55.418622)"/>
<path style="fill-rule:evenodd;fill:rgb(100%,80%,0%);fill-opacity:1;stroke-width:4;stroke-linecap:round;stroke-linejoin:miter;stroke:rgb(0%,0%,0%);stroke-opacity:1;stroke-miterlimit:4;" d="M 101.804566 46.438551 C 107.451784 36.178504 95.796552 23.803309 95.796552 23.803309 L 113.11469 19.557228 C 113.11469 19.557228 110.636188 35.12093 119.828605 40.771848 " transform="matrix(0.249016,0,0,0.247471,0.0122758,0)"/>
<path style="fill-rule:nonzero;fill:rgb(47.058824%,26.666667%,12.941176%);fill-opacity:1;stroke-width:4;stroke-linecap:round;stroke-linejoin:round;stroke:rgb(0%,0%,0%);stroke-opacity:1;stroke-miterlimit:4;" d="M 118.385427 17.394726 C 118.32268 25.839533 111.451897 32.642734 103.012443 32.642734 C 94.557302 32.642734 87.702206 25.839533 87.623772 17.394726 C 87.592399 11.870085 90.510128 6.740062 95.278891 3.961957 C 100.06334 1.183852 105.961546 1.183852 110.730308 3.961957 C 115.514757 6.740062 118.432487 11.870085 118.385427 17.394726 Z M 118.385427 17.394726 " transform="matrix(0.249016,0,0,0.247471,0.0122758,0)"/>
<path style="fill-rule:evenodd;fill:rgb(100%,80%,0%);fill-opacity:1;stroke-width:4;stroke-linecap:round;stroke-linejoin:miter;stroke:rgb(0%,0%,0%);stroke-opacity:1;stroke-miterlimit:4;" d="M 168.975094 46.438551 C 163.312188 36.178504 174.983107 23.803309 174.983107 23.803309 L 157.649283 19.557228 C 157.649283 19.557228 160.127785 35.12093 150.935368 40.771848 " transform="matrix(0.249016,0,0,0.247471,0.0122758,0)"/>
<path style="fill-rule:nonzero;fill:rgb(47.058824%,26.666667%,12.941176%);fill-opacity:1;stroke-width:4;stroke-linecap:round;stroke-linejoin:round;stroke:rgb(0%,0%,0%);stroke-opacity:1;stroke-miterlimit:4;" d="M 182.387238 17.394726 C 182.324491 25.839533 175.453708 32.642734 167.014254 32.642734 C 158.559113 32.642734 151.704017 25.839533 151.625583 17.394726 C 151.59421 11.870085 154.511939 6.740062 159.280702 3.961957 C 164.065151 1.183852 169.963357 1.183852 174.732119 3.961957 C 179.516569 6.740062 182.434298 11.870085 182.387238 17.394726 Z M 182.387238 17.394726 " transform="matrix(0.249016,0,0,0.247471,0.0122758,0)"/>
<path style="fill:none;stroke-width:3.1778;stroke-linecap:round;stroke-linejoin:round;stroke:rgb(40.392157%,27.843137%,23.137255%);stroke-opacity:1;stroke-miterlimit:4;" d="M 20.924433 12.850666 C 20.707014 17.276579 17.675174 21.140449 13.310492 21.938625 " transform="matrix(-0.235078,-0.304386,0.280588,-0.255016,32.520166,30.911857)"/>
<path style="fill:none;stroke-width:1.4415;stroke-linecap:round;stroke-linejoin:round;stroke:rgb(40.392157%,27.843137%,23.137255%);stroke-opacity:1;stroke-miterlimit:4;" d="M 21.036196 12.469684 C 21.036196 17.739616 16.761833 22.014464 11.490281 22.014464 C 6.218728 22.014464 1.944366 17.739616 1.944366 12.469684 C 1.944366 7.195289 6.218728 2.920441 11.490281 2.920441 C 16.761833 2.920441 21.036196 7.195289 21.036196 12.469684 Z M 21.036196 12.469684 " transform="matrix(0.806955,0,0,0.875397,33.255203,14.377049)"/>
<use xlink:href="#surface17" mask="url(#mask4)"/>
<use xlink:href="#surface20" mask="url(#mask5)"/>
<path style="fill:none;stroke-width:1.4415;stroke-linecap:round;stroke-linejoin:round;stroke:rgb(40.392157%,27.843137%,23.137255%);stroke-opacity:1;stroke-miterlimit:4;" d="M 21.034497 12.468369 C 21.034497 17.738302 16.760134 22.01315 11.488582 22.01315 C 6.217029 22.01315 1.942667 17.738302 1.942667 12.468369 C 1.942667 7.193975 6.217029 2.923589 11.488582 2.923589 C 16.760134 2.923589 21.034497 7.193975 21.034497 12.468369 Z M 21.034497 12.468369 " transform="matrix(0.806955,0,0,0.875397,15.100324,14.3782)"/>
<use xlink:href="#surface23" mask="url(#mask6)"/>
<use xlink:href="#surface26" mask="url(#mask7)"/>
</g>
</svg>
